<svg width="274" height="83" viewBox="0 0 274 83" fill="none" xmlns="http://www.w3.org/2000/svg">
<path d="M47.2502 81H0.882171V1.47999H13.9862V70.136H47.2502V81ZM133.274 81H119.498L112.442 61.624H78.2821L71.1141 81H57.8981L88.4741 1.47999H102.698L133.274 81ZM95.4181 15.368L82.3141 50.76H108.41L95.4181 15.368ZM174.26 82.456C155.22 82.456 142.564 72.824 141.668 55.8H154.66C155.78 66.888 163.844 71.592 174.82 71.592C184.788 71.592 191.956 67.672 191.956 59.72V59.16C191.956 52.328 187.14 48.856 171.012 45.944C151.412 42.472 144.468 35.192 144.468 23.32V22.536C144.468 9.54399 155.78 0.0239889 173.14 0.0239889C189.828 0.0239889 201.924 8.31199 203.492 24.552H190.388C189.268 15.368 182.772 10.776 172.916 10.776C163.06 10.776 157.236 15.256 157.236 22.2V22.76C157.236 28.92 160.596 32.392 176.388 35.08C195.428 38.328 204.836 44.936 204.836 57.928V58.824C204.836 72.6 193.076 82.456 174.26 82.456ZM250.061 81H236.957V12.344H213.549V1.47999H273.581V12.344H250.061V81Z" fill="black"/>
</svg>
