<svg width="125" height="38" viewBox="0 0 125 38" fill="none" xmlns="http://www.w3.org/2000/svg">
<path d="M0 37.0789V0.601562H6.15061V31.9691H22.2059V37.0789H0Z" fill="#010101"/>
<path d="M125.001 0.521484V36.9988H118.85V5.63121H102.795V0.521484H124.997H125.001Z" fill="#010101"/>
<path d="M55.7094 37.0789L52.2254 27.5098H36.932L33.5035 37.0789H27.0273L40.745 0.601562H48.5822L62.2964 37.0789H55.7129H55.7094ZM44.5545 6.09184L38.6221 22.3447H50.5389L44.5545 6.09184Z" fill="#010101"/>
<path d="M90.3814 11.202C90.0005 5.71169 85.7027 4.73264 82.2741 4.73264C78.8456 4.73264 75.1469 6.09224 75.1469 9.62442C75.1469 18.8129 96.8056 13.1047 96.8056 26.9117C96.8056 33.1077 91.9606 37.785 82.2222 37.785C78.2499 37.785 68.2379 36.5361 67.7461 25.7701H73.8967C74.1149 31.2603 78.4681 32.9451 82.7659 32.9451C87.0637 32.9451 90.4923 31.4229 90.4923 27.6728C90.4923 18.3217 68.8889 24.4105 68.8889 10.1122C68.8889 2.93714 75.8015 0 82.8733 0C87.3893 0 96.0437 1.57755 96.532 11.1985H90.3814V11.202Z" fill="#010101"/>
</svg>
