<svg width="837" height="609" viewBox="0 0 837 609" fill="none" xmlns="http://www.w3.org/2000/svg">
<g filter="url(#filter0_f_2081_40)">
<rect x="173.15" y="102.55" width="490.566" height="404.591" fill="#DE4BFF"/>
</g>
<rect x="249.45" y="170.825" width="337.58" height="255.398" fill="white"/>
<g filter="url(#filter1_d_2081_40)">
<path d="M302.649 314.959V247.425H314.052V305.501H343.837V314.959H302.649Z" fill="white"/>
<path d="M534.521 247.277V314.811H523.119V256.736H493.334V247.277H534.521Z" fill="white"/>
<path d="M405.995 314.959L399.54 297.25H371.181L364.824 314.959H352.815L378.226 247.425H392.758L418.201 314.959H405.979H405.995ZM385.303 257.586L374.294 287.677H396.395L385.287 257.586H385.303Z" fill="white"/>
<path d="M470.313 267.046C469.609 256.885 461.63 255.071 455.274 255.071C448.917 255.071 442.052 257.587 442.052 264.138C442.052 281.144 482.224 270.575 482.224 296.141C482.224 307.609 473.246 316.267 455.175 316.267C447.803 316.267 429.224 313.947 428.323 294.017H439.726C440.136 304.178 448.212 307.298 456.175 307.298C464.137 307.298 470.51 304.472 470.51 297.529C470.51 280.213 430.437 291.485 430.437 265.02C430.437 251.739 443.265 246.299 456.388 246.299C464.759 246.299 480.815 249.223 481.732 267.03H470.33L470.313 267.046Z" fill="white"/>
</g>
<path d="M302.649 314.959V247.425H314.052V305.501H343.837V314.959H302.649Z" fill="#DE4BFF"/>
<path d="M534.521 247.277V314.811H523.119V256.736H493.334V247.277H534.521Z" fill="#DE4BFF"/>
<path d="M405.995 314.959L399.54 297.25H371.181L364.824 314.959H352.815L378.226 247.425H392.758L418.201 314.959H405.979H405.995ZM385.303 257.586L374.294 287.677H396.395L385.287 257.586H385.303Z" fill="#DE4BFF"/>
<path d="M470.313 267.046C469.609 256.885 461.63 255.071 455.274 255.071C448.917 255.071 442.052 257.587 442.052 264.138C442.052 281.144 482.224 270.575 482.224 296.141C482.224 307.609 473.246 316.267 455.175 316.267C447.803 316.267 429.224 313.947 428.323 294.017H439.726C440.136 304.178 448.212 307.298 456.175 307.298C464.137 307.298 470.51 304.472 470.51 297.529C470.51 280.213 430.437 291.485 430.437 265.02C430.437 251.739 443.265 246.299 456.388 246.299C464.759 246.299 480.815 249.223 481.732 267.03H470.33L470.313 267.046Z" fill="#DE4BFF"/>
<g filter="url(#filter2_d_2081_40)">
<path d="M340.45 357.354V339.581H345.857C350.1 339.581 352.508 340.887 352.508 343.975C352.508 346.164 351.198 347.683 348.871 348.075C351.378 348.402 353.016 350.052 353.016 352.372C353.016 355.035 351.066 357.354 347.053 357.354H340.45ZM345.627 347.373C348.38 347.373 350.247 346.572 350.247 344.204C350.247 341.835 348.183 341.247 345.496 341.247H342.662V347.373H345.627ZM346.561 355.655C349.182 355.655 350.657 354.463 350.657 352.274C350.657 350.085 348.789 348.974 345.627 348.974H342.662V355.655H346.561Z" fill="white"/>
<path d="M367.924 353.6C367.285 356.165 365.385 357.684 362.288 357.684C358.258 357.684 355.866 355.07 355.866 350.627C355.866 346.183 358.406 343.488 362.288 343.488C366.171 343.488 368.055 345.971 368.055 350.104L368.006 351.117H358.111C358.193 354.204 359.634 355.969 362.223 355.969C364.287 355.969 365.401 355.119 365.811 353.616H367.924V353.6ZM365.827 349.5C365.745 346.804 364.762 345.187 362.223 345.187C359.683 345.187 358.406 346.755 358.127 349.5H365.827Z" fill="white"/>
<path d="M372.97 363.008L375.378 356.98L370.201 343.764H372.478L376.46 354.66L380.572 343.764H382.783L375.067 363.008H372.986H372.97Z" fill="white"/>
<path d="M384.668 350.595C384.668 346.152 387.093 343.473 391.008 343.473C394.924 343.473 397.349 346.135 397.349 350.595C397.349 355.055 394.924 357.685 391.008 357.685C387.093 357.685 384.668 355.022 384.668 350.595ZM395.12 350.595C395.12 347.181 393.728 345.188 391.008 345.188C388.289 345.188 386.896 347.181 386.896 350.595C386.896 354.01 388.289 355.954 391.008 355.954C393.728 355.954 395.12 354.01 395.12 350.595Z" fill="white"/>
<path d="M410.324 357.358V348.374C410.324 346.528 409.193 345.286 407.178 345.286C404.803 345.286 403.23 347.018 403.23 349.599V357.358H401.067V343.767H403.066V346.544C404.115 344.338 405.786 343.473 407.817 343.473C410.226 343.473 412.503 344.78 412.503 347.818V357.358H410.34H410.324Z" fill="white"/>
<path d="M426.3 357.355V354.643C425.186 356.832 423.58 357.682 421.631 357.682C418.665 357.682 416.126 355.623 416.126 350.559C416.126 345.495 418.633 343.469 421.631 343.469C423.58 343.469 425.219 344.302 426.251 346.377L426.136 344.319V338.144H428.299V357.355H426.3ZM426.169 350.559C426.169 346.704 424.612 345.184 422.106 345.184C419.96 345.184 418.338 346.818 418.338 350.559C418.338 354.3 419.96 355.966 422.106 355.966C424.596 355.966 426.169 354.447 426.169 350.559Z" fill="white"/>
<path d="M443.287 357.354V341.427H437.405V339.581H451.38V341.427H445.499V357.354H443.287Z" fill="white"/>
<path d="M454.165 341.051V338.682H456.491V341.051H454.165ZM454.247 357.354V343.763H456.41V357.354H454.247Z" fill="white"/>
<path d="M478.363 357.358V348.374C478.363 346.528 477.348 345.286 475.447 345.286C473.367 345.286 471.941 347.018 471.941 349.599V357.358H469.779V348.374C469.779 346.528 468.73 345.286 466.846 345.286C464.765 345.286 463.324 347.018 463.324 349.599V357.358H461.161V343.767H463.16V346.544C464.094 344.355 465.667 343.473 467.485 343.473C469.402 343.473 471.253 344.404 471.794 346.511C472.678 344.404 474.202 343.473 476.119 343.473C478.396 343.473 480.526 344.78 480.526 347.818V357.358H478.363Z" fill="white"/>
<path d="M496.466 353.6C495.827 356.165 493.927 357.684 490.83 357.684C486.8 357.684 484.408 355.07 484.408 350.627C484.408 346.183 486.948 343.488 490.83 343.488C494.713 343.488 496.597 345.971 496.597 350.104L496.548 351.117H486.653C486.735 354.204 488.176 355.969 490.765 355.969C492.829 355.969 493.943 355.119 494.353 353.616H496.466V353.6ZM494.369 349.5C494.287 346.804 493.304 345.187 490.765 345.187C488.225 345.187 486.948 346.755 486.669 349.5H494.369Z" fill="white"/>
</g>
<path d="M340.45 357.354V339.581H345.857C350.1 339.581 352.508 340.887 352.508 343.975C352.508 346.164 351.198 347.683 348.871 348.075C351.378 348.402 353.016 350.052 353.016 352.372C353.016 355.035 351.066 357.354 347.053 357.354H340.45ZM345.627 347.373C348.38 347.373 350.247 346.572 350.247 344.204C350.247 341.835 348.183 341.247 345.496 341.247H342.662V347.373H345.627ZM346.561 355.655C349.182 355.655 350.657 354.463 350.657 352.274C350.657 350.085 348.789 348.974 345.627 348.974H342.662V355.655H346.561Z" fill="#DE4BFF"/>
<path d="M367.924 353.6C367.285 356.165 365.385 357.684 362.288 357.684C358.258 357.684 355.866 355.07 355.866 350.627C355.866 346.183 358.406 343.488 362.288 343.488C366.171 343.488 368.055 345.971 368.055 350.104L368.006 351.117H358.111C358.193 354.204 359.634 355.969 362.223 355.969C364.287 355.969 365.401 355.119 365.811 353.616H367.924V353.6ZM365.827 349.5C365.745 346.804 364.762 345.187 362.223 345.187C359.683 345.187 358.406 346.755 358.127 349.5H365.827Z" fill="#DE4BFF"/>
<path d="M372.97 363.008L375.378 356.98L370.201 343.764H372.478L376.46 354.66L380.572 343.764H382.783L375.067 363.008H372.986H372.97Z" fill="#DE4BFF"/>
<path d="M384.668 350.595C384.668 346.152 387.093 343.473 391.008 343.473C394.924 343.473 397.349 346.135 397.349 350.595C397.349 355.055 394.924 357.685 391.008 357.685C387.093 357.685 384.668 355.022 384.668 350.595ZM395.12 350.595C395.12 347.181 393.728 345.188 391.008 345.188C388.289 345.188 386.896 347.181 386.896 350.595C386.896 354.01 388.289 355.954 391.008 355.954C393.728 355.954 395.12 354.01 395.12 350.595Z" fill="#DE4BFF"/>
<path d="M410.324 357.358V348.374C410.324 346.528 409.193 345.286 407.178 345.286C404.803 345.286 403.23 347.018 403.23 349.599V357.358H401.067V343.767H403.066V346.544C404.115 344.338 405.786 343.473 407.817 343.473C410.226 343.473 412.503 344.78 412.503 347.818V357.358H410.34H410.324Z" fill="#DE4BFF"/>
<path d="M426.3 357.355V354.643C425.186 356.832 423.58 357.682 421.631 357.682C418.665 357.682 416.126 355.623 416.126 350.559C416.126 345.495 418.633 343.469 421.631 343.469C423.58 343.469 425.219 344.302 426.251 346.377L426.136 344.319V338.144H428.299V357.355H426.3ZM426.169 350.559C426.169 346.704 424.612 345.184 422.106 345.184C419.96 345.184 418.338 346.818 418.338 350.559C418.338 354.3 419.96 355.966 422.106 355.966C424.596 355.966 426.169 354.447 426.169 350.559Z" fill="#DE4BFF"/>
<path d="M443.287 357.354V341.427H437.405V339.581H451.38V341.427H445.499V357.354H443.287Z" fill="#DE4BFF"/>
<path d="M454.165 341.051V338.682H456.491V341.051H454.165ZM454.247 357.354V343.763H456.41V357.354H454.247Z" fill="#DE4BFF"/>
<path d="M478.363 357.358V348.374C478.363 346.528 477.348 345.286 475.447 345.286C473.367 345.286 471.941 347.018 471.941 349.599V357.358H469.779V348.374C469.779 346.528 468.73 345.286 466.846 345.286C464.765 345.286 463.324 347.018 463.324 349.599V357.358H461.161V343.767H463.16V346.544C464.094 344.355 465.667 343.473 467.485 343.473C469.402 343.473 471.253 344.404 471.794 346.511C472.678 344.404 474.202 343.473 476.119 343.473C478.396 343.473 480.526 344.78 480.526 347.818V357.358H478.363Z" fill="#DE4BFF"/>
<path d="M496.466 353.6C495.827 356.165 493.927 357.684 490.83 357.684C486.8 357.684 484.408 355.07 484.408 350.627C484.408 346.183 486.948 343.488 490.83 343.488C494.713 343.488 496.597 345.971 496.597 350.104L496.548 351.117H486.653C486.735 354.204 488.176 355.969 490.765 355.969C492.829 355.969 493.943 355.119 494.353 353.616H496.466V353.6ZM494.369 349.5C494.287 346.804 493.304 345.187 490.765 345.187C488.225 345.187 486.948 346.755 486.669 349.5H494.369Z" fill="#DE4BFF"/>
<defs>
<filter id="filter0_f_2081_40" x="109.933" y="39.3325" width="617.001" height="531.025" filterUnits="userSpaceOnUse" color-interpolation-filters="sRGB">
<feFlood flood-opacity="0" result="BackgroundImageFix"/>
<feBlend mode="normal" in="SourceGraphic" in2="BackgroundImageFix" result="shape"/>
<feGaussianBlur stdDeviation="31.6087" result="effect1_foregroundBlur_2081_40"/>
</filter>
<filter id="filter1_d_2081_40" x="298.856" y="242.506" width="252.102" height="90.1978" filterUnits="userSpaceOnUse" color-interpolation-filters="sRGB">
<feFlood flood-opacity="0" result="BackgroundImageFix"/>
<feColorMatrix in="SourceAlpha" type="matrix" values="0 0 0 0 0 0 0 0 0 0 0 0 0 0 0 0 0 0 127 0" result="hardAlpha"/>
<feOffset dx="6.32173" dy="6.32173"/>
<feGaussianBlur stdDeviation="5.05738"/>
<feComposite in2="hardAlpha" operator="out"/>
<feColorMatrix type="matrix" values="0 0 0 0 0 0 0 0 0 0 0 0 0 0 0 0 0 0 0.1 0"/>
<feBlend mode="normal" in2="BackgroundImageFix" result="effect1_dropShadow_2081_40"/>
<feBlend mode="normal" in="SourceGraphic" in2="effect1_dropShadow_2081_40" result="shape"/>
</filter>
<filter id="filter2_d_2081_40" x="339.186" y="336.879" width="163.734" height="32.4508" filterUnits="userSpaceOnUse" color-interpolation-filters="sRGB">
<feFlood flood-opacity="0" result="BackgroundImageFix"/>
<feColorMatrix in="SourceAlpha" type="matrix" values="0 0 0 0 0 0 0 0 0 0 0 0 0 0 0 0 0 0 127 0" result="hardAlpha"/>
<feOffset dx="2.52869" dy="2.52869"/>
<feGaussianBlur stdDeviation="1.89652"/>
<feComposite in2="hardAlpha" operator="out"/>
<feColorMatrix type="matrix" values="0 0 0 0 0 0 0 0 0 0 0 0 0 0 0 0 0 0 0.15 0"/>
<feBlend mode="normal" in2="BackgroundImageFix" result="effect1_dropShadow_2081_40"/>
<feBlend mode="normal" in="SourceGraphic" in2="effect1_dropShadow_2081_40" result="shape"/>
</filter>
</defs>
</svg>
